<svg width="512" height="512" viewBox="0 0 512 512" fill="none" xmlns="http://www.w3.org/2000/svg">
  <rect width="512" height="512" rx="112" fill="#140E24"/>
  <rect x="18" y="18" width="476" height="476" rx="98" fill="url(#halo)" stroke="#8D7CF6" stroke-opacity="0.28" stroke-width="2"/>
  <path d="M256 64L268.5 113.5L318 126L268.5 138.5L256 188L243.5 138.5L194 126L243.5 113.5L256 64Z" fill="#DCCBFF" fill-opacity="0.96"/>
  <path d="M151 168H244C306 168 346 203 346 256C346 309 306 344 244 344H207V404H151V168ZM238 296C270 296 289 281 289 256C289 231 270 216 238 216H207V296H238Z" fill="#F7F0FF"/>
  <path d="M331 219H274V168H445V219H388V404H331V219Z" fill="#B8A5FF"/>
  <path d="M106 408C145 440 196 458 256 458C316 458 367 440 406 408" stroke="#D8C4A1" stroke-width="12" stroke-linecap="round" stroke-opacity="0.72"/>
  <defs>
    <radialGradient id="halo" cx="0" cy="0" r="1" gradientUnits="userSpaceOnUse" gradientTransform="translate(256 226) rotate(90) scale(280)">
      <stop offset="0" stop-color="#513393"/>
      <stop offset="0.48" stop-color="#24133E"/>
      <stop offset="1" stop-color="#090714"/>
    </radialGradient>
  </defs>
</svg>
