<svg width="512" height="512" viewBox="0 0 512 512" fill="none" xmlns="http://www.w3.org/2000/svg">
  <rect width="512" height="512" rx="108" fill="#140E24"/>
  <rect x="18" y="18" width="476" height="476" rx="92" fill="url(#halo)" stroke="#BCA7FF" stroke-opacity="0.34" stroke-width="3"/>
  <path d="M256 48L272 112L336 128L272 144L256 208L240 144L176 128L240 112L256 48Z" fill="#F3E9FF"/>
  <path fill-rule="evenodd" clip-rule="evenodd" d="M100 140H246C320 140 368 181 368 246C368 311 320 352 246 352H190V414H100V140ZM234 286C268 286 290 270 290 246C290 222 268 206 234 206H190V286H234Z" fill="#FFF8FF"/>
  <path d="M316 208H258V140H462V208H404V414H316V208Z" fill="#B8A5FF"/>
  <defs>
    <radialGradient id="halo" cx="0" cy="0" r="1" gradientUnits="userSpaceOnUse" gradientTransform="translate(256 228) rotate(90) scale(278)">
      <stop offset="0" stop-color="#5B3BA4"/>
      <stop offset="0.44" stop-color="#24133E"/>
      <stop offset="1" stop-color="#090512"/>
    </radialGradient>
  </defs>
</svg>
